A Walk to Remember (2002)

Var gång våren kommer till North Carolina, tänker Landon Carter tillbaka på sin 

gymnasietid och på Jamie Sullivan. Landon umgicks med skolans innegäng, och han 

och hans vänner hade inte annat än förakt till övers för den självsäkra Jamie. Men 

när Landon hamnar i skolans dramagrupp, som straff för ett pojkstreck, möter han 

Jamie på hennes villkor. Deras möte väcker lidelsefulla känslor, känslor han inte 

visste fanns. Och deras möte kom att ändra hans liv för alltid.

Officiell Hemsida:www.awalktoremember.com/

Originaltitel
A Walk to Remember

Land, år, längd
USA år 2002, 101 min

Regissör
Adam Shankman

Manus
Karen Janszen

Skådespelare
Shane West - Landon Carter
Mandy Moore - Jamie Sullivan
Peter Coyote - Reverend Sullivan
Daryl Hannah - Cynthia Carter
Lauren German - Belinda
Clayne Crawford - Dean
Al Thompson - Eric
Paz de la Huerta - Tracie
Jonathan Parks Jordan - Walker
Matt Lutz - Clay Gephardt
David Andrews - Mr. Kelly
David Lee Smith - Dr. Carter


Julio Macat - FOTO

Emma E. Hickox - Klippning

Doug Hall - Kostym

Carl Rudisill - Ljud

Mervyn Warren - Musik
Denise Di Novi - Producent



Complete name                    : Walk.To.Remember.2002.SWESUB.DVDRip.XviD
Format                           : AVI
Format/Info                      : Audio Video Interleave
File size                        : 700 MiB
Duration                         : 53mn 10s
Overall bit rate                 : 1 840 Kbps
Writing application              : FairUse Wizard - http://fairusewizard.com
Writing library                  : The best and REALLY easy backup tool

Video
ID                               : 0
Format                           : MPEG-4 Visual
Format profile                   : Advanced Simple@L5
Format settings, BVOP            : Yes
Format settings, QPel            : No
Format settings, GMC             : No warppoints
Format settings, Matrix          : Default (MPEG)
Muxing mode                      : Packed bitstream
Codec ID                         : XVID
Codec ID/Hint                    : XviD
Duration                         : 53mn 10s
Bit rate                         : 1 703 Kbps
Width                            : 688 pixels
Height                           : 384 pixels
Display aspect ratio             : 16:9
Frame rate                       : 25.000 fps
Color space                      : YUV
Chroma subsampling               : 4:2:0
Bit depth                        : 8 bits
Scan type                        : Progressive
Bits/(Pixel*Frame)               : 0.258
Stream size                      : 648 MiB (93%)
Writing library                  : XviD 1.2.0.dev47 (UTC 2006-11-01)

Audio
ID                               : 1
Format                           : MPEG Audio
Format version                   : Version 1
Format profile                   : Layer 3
Mode                             : Joint stereo
Mode extension                   : MS Stereo
Codec ID                         : 55
Codec ID/Hint                    : MP3
Duration                         : 53mn 10s
Bit rate mode                    : Constant
Bit rate                         : 128 Kbps
Channel(s)                       : 2 channels
Sampling rate                    : 48.0 KHz
Stream size                      : 48.7 MiB (7%)
Alignment                        : Aligned on interleaves
Interleave, duration             : 40 ms (1.00 video frame)
Interleave, preload duration     : 504 ms
Writing library                  : LAME3.97b
Encoding settings                : -m j -V 4 -q 2 -lowpass 17 -b 128





